<mxfile host="app.diagrams.net" modified="2023-10-16T02:11:58.008Z" agent="Mozilla/5.0 (Windows NT 10.0; Win64; x64; rv:109.0) Gecko/20100101 Firefox/118.0" etag="hn8_chAfNDG_v8xgZZ2D" version="22.0.4" type="github">
  <diagram id="C5RBs43oDa-KdzZeNtuy" name="Page-1">
    <mxGraphModel dx="880" dy="470" grid="1" gridSize="10" guides="1" tooltips="1" connect="1" arrows="1" fold="1" page="1" pageScale="1" pageWidth="827" pageHeight="1169" math="0" shadow="0">
      <root>
        <mxCell id="WIyWlLk6GJQsqaUBKTNV-0" />
        <mxCell id="WIyWlLk6GJQsqaUBKTNV-1" parent="WIyWlLk6GJQsqaUBKTNV-0" />
        <mxCell id="qVR0KcIEbsPTxcFp8vvx-2" value="" style="edgeStyle=orthogonalEdgeStyle;rounded=0;orthogonalLoop=1;jettySize=auto;html=1;" edge="1" parent="WIyWlLk6GJQsqaUBKTNV-1" source="qVR0KcIEbsPTxcFp8vvx-0" target="qVR0KcIEbsPTxcFp8vvx-1">
          <mxGeometry relative="1" as="geometry" />
        </mxCell>
        <mxCell id="qVR0KcIEbsPTxcFp8vvx-0" value="mulai" style="ellipse;whiteSpace=wrap;html=1;" vertex="1" parent="WIyWlLk6GJQsqaUBKTNV-1">
          <mxGeometry x="354" y="40" width="120" height="80" as="geometry" />
        </mxCell>
        <mxCell id="qVR0KcIEbsPTxcFp8vvx-4" value="" style="edgeStyle=orthogonalEdgeStyle;rounded=0;orthogonalLoop=1;jettySize=auto;html=1;" edge="1" parent="WIyWlLk6GJQsqaUBKTNV-1" source="qVR0KcIEbsPTxcFp8vvx-1" target="qVR0KcIEbsPTxcFp8vvx-3">
          <mxGeometry relative="1" as="geometry" />
        </mxCell>
        <mxCell id="qVR0KcIEbsPTxcFp8vvx-1" value="&lt;div&gt;menetapkan &lt;br&gt;&lt;/div&gt;&lt;div&gt;bilangan ganjil&lt;/div&gt;&lt;div&gt;dan genap&lt;br&gt;&lt;/div&gt;" style="shape=parallelogram;perimeter=parallelogramPerimeter;whiteSpace=wrap;html=1;fixedSize=1;" vertex="1" parent="WIyWlLk6GJQsqaUBKTNV-1">
          <mxGeometry x="344" y="160" width="140" height="80" as="geometry" />
        </mxCell>
        <mxCell id="qVR0KcIEbsPTxcFp8vvx-6" value="" style="edgeStyle=orthogonalEdgeStyle;rounded=0;orthogonalLoop=1;jettySize=auto;html=1;" edge="1" parent="WIyWlLk6GJQsqaUBKTNV-1" source="qVR0KcIEbsPTxcFp8vvx-3" target="qVR0KcIEbsPTxcFp8vvx-5">
          <mxGeometry relative="1" as="geometry" />
        </mxCell>
        <mxCell id="qVR0KcIEbsPTxcFp8vvx-3" value="dibagi 2" style="whiteSpace=wrap;html=1;aspect=fixed;" vertex="1" parent="WIyWlLk6GJQsqaUBKTNV-1">
          <mxGeometry x="359" y="270" width="110" height="110" as="geometry" />
        </mxCell>
        <mxCell id="qVR0KcIEbsPTxcFp8vvx-9" value="BISA" style="edgeStyle=orthogonalEdgeStyle;rounded=0;orthogonalLoop=1;jettySize=auto;html=1;" edge="1" parent="WIyWlLk6GJQsqaUBKTNV-1" source="qVR0KcIEbsPTxcFp8vvx-5" target="qVR0KcIEbsPTxcFp8vvx-7">
          <mxGeometry relative="1" as="geometry" />
        </mxCell>
        <mxCell id="qVR0KcIEbsPTxcFp8vvx-10" value="TIDAKBISA" style="edgeStyle=orthogonalEdgeStyle;rounded=0;orthogonalLoop=1;jettySize=auto;html=1;" edge="1" parent="WIyWlLk6GJQsqaUBKTNV-1" source="qVR0KcIEbsPTxcFp8vvx-5" target="qVR0KcIEbsPTxcFp8vvx-8">
          <mxGeometry relative="1" as="geometry" />
        </mxCell>
        <mxCell id="qVR0KcIEbsPTxcFp8vvx-5" value="&lt;div&gt;BILANGAN DIBAGI &lt;br&gt;&lt;/div&gt;&lt;div&gt;DENGAN 2&lt;br&gt;&lt;/div&gt;" style="rhombus;whiteSpace=wrap;html=1;" vertex="1" parent="WIyWlLk6GJQsqaUBKTNV-1">
          <mxGeometry x="344" y="420" width="140" height="140" as="geometry" />
        </mxCell>
        <mxCell id="qVR0KcIEbsPTxcFp8vvx-7" value="GENAP" style="shape=parallelogram;perimeter=parallelogramPerimeter;whiteSpace=wrap;html=1;fixedSize=1;" vertex="1" parent="WIyWlLk6GJQsqaUBKTNV-1">
          <mxGeometry x="530" y="445" width="160" height="90" as="geometry" />
        </mxCell>
        <mxCell id="qVR0KcIEbsPTxcFp8vvx-12" value="" style="edgeStyle=orthogonalEdgeStyle;rounded=0;orthogonalLoop=1;jettySize=auto;html=1;" edge="1" parent="WIyWlLk6GJQsqaUBKTNV-1" source="qVR0KcIEbsPTxcFp8vvx-8" target="qVR0KcIEbsPTxcFp8vvx-11">
          <mxGeometry relative="1" as="geometry" />
        </mxCell>
        <mxCell id="qVR0KcIEbsPTxcFp8vvx-8" value="GANJIL" style="shape=parallelogram;perimeter=parallelogramPerimeter;whiteSpace=wrap;html=1;fixedSize=1;" vertex="1" parent="WIyWlLk6GJQsqaUBKTNV-1">
          <mxGeometry x="334" y="610" width="160" height="90" as="geometry" />
        </mxCell>
        <mxCell id="qVR0KcIEbsPTxcFp8vvx-11" value="FINISH" style="ellipse;whiteSpace=wrap;html=1;" vertex="1" parent="WIyWlLk6GJQsqaUBKTNV-1">
          <mxGeometry x="339" y="750" width="150" height="100" as="geometry" />
        </mxCell>
      </root>
    </mxGraphModel>
  </diagram>
</mxfile>
